solid 
facet normal 0.618034 0.0978869 0.309017
   outer loop
vertex 0 0 2
vertex 1 0 0
vertex 0.951057 0.309017 0
   endloop
endfacet
facet normal 0.557536 0.284079 0.309017
   outer loop
vertex 0 0 2
vertex 0.951057 0.309017 0
vertex 0.809017 0.587785 0
   endloop
endfacet
facet normal 0.442464 0.442464 0.309017
   outer loop
vertex 0 0 2
vertex 0.809017 0.587785 0
vertex 0.587785 0.809017 0
   endloop
endfacet
facet normal 0.284079 0.557537 0.309017
   outer loop
vertex 0 0 2
vertex 0.587785 0.809017 0
vertex 0.309017 0.951057 0
   endloop
endfacet
facet normal 0.0978869 0.618034 0.309017
   outer loop
vertex 0 0 2
vertex 0.309017 0.951057 0
vertex -4.37114e-008 1 0
   endloop
endfacet
facet normal -0.097887 0.618034 0.309017
   outer loop
vertex 0 0 2
vertex -4.37114e-008 1 0
vertex -0.309017 0.951056 0
   endloop
endfacet
facet normal -0.284079 0.557536 0.309017
   outer loop
vertex 0 0 2
vertex -0.309017 0.951056 0
vertex -0.587785 0.809017 0
   endloop
endfacet
facet normal -0.442464 0.442464 0.309017
   outer loop
vertex 0 0 2
vertex -0.587785 0.809017 0
vertex -0.809017 0.587785 0
   endloop
endfacet
facet normal -0.557536 0.284079 0.309017
   outer loop
vertex 0 0 2
vertex -0.809017 0.587785 0
vertex -0.951056 0.309017 0
   endloop
endfacet
facet normal -0.618034 0.097887 0.309017
   outer loop
vertex 0 0 2
vertex -0.951056 0.309017 0
vertex -1 -8.74228e-008 0
   endloop
endfacet
facet normal -0.618034 -0.0978869 0.309017
   outer loop
vertex 0 0 2
vertex -1 -8.74228e-008 0
vertex -0.951057 -0.309017 0
   endloop
endfacet
facet normal -0.557537 -0.284079 0.309017
   outer loop
vertex 0 0 2
vertex -0.951057 -0.309017 0
vertex -0.809017 -0.587785 0
   endloop
endfacet
facet normal -0.442464 -0.442464 0.309017
   outer loop
vertex 0 0 2
vertex -0.809017 -0.587785 0
vertex -0.587785 -0.809017 0
   endloop
endfacet
facet normal -0.284079 -0.557536 0.309017
   outer loop
vertex 0 0 2
vertex -0.587785 -0.809017 0
vertex -0.309017 -0.951056 0
   endloop
endfacet
facet normal -0.097887 -0.618034 0.309017
   outer loop
vertex 0 0 2
vertex -0.309017 -0.951056 0
vertex 1.19249e-008 -1 0
   endloop
endfacet
facet normal 0.097887 -0.618034 0.309017
   outer loop
vertex 0 0 2
vertex 1.19249e-008 -1 0
vertex 0.309017 -0.951056 0
   endloop
endfacet
facet normal 0.284079 -0.557536 0.309017
   outer loop
vertex 0 0 2
vertex 0.309017 -0.951056 0
vertex 0.587785 -0.809017 0
   endloop
endfacet
facet normal 0.442464 -0.442464 0.309017
   outer loop
vertex 0 0 2
vertex 0.587785 -0.809017 0
vertex 0.809017 -0.587785 0
   endloop
endfacet
facet normal 0.557537 -0.284079 0.309017
   outer loop
vertex 0 0 2
vertex 0.809017 -0.587785 0
vertex 0.951057 -0.309017 0
   endloop
endfacet
facet normal 0.618034 -0.0978869 0.309017
   outer loop
vertex 0 0 2
vertex 0.951057 -0.309017 0
vertex 1 0 0
   endloop
endfacet
facet normal 0 0 -0.309017
   outer loop
vertex 0 0 0
vertex 0.951057 0.309017 0
vertex 1 0 0
   endloop
endfacet
facet normal 0 0 -0.309017
   outer loop
vertex 0 0 0
vertex 0.809017 0.587785 0
vertex 0.951057 0.309017 0
   endloop
endfacet
facet normal 0 0 -0.309017
   outer loop
vertex 0 0 0
vertex 0.587785 0.809017 0
vertex 0.809017 0.587785 0
   endloop
endfacet
facet normal 0 0 -0.309017
   outer loop
vertex 0 0 0
vertex 0.309017 0.951057 0
vertex 0.587785 0.809017 0
   endloop
endfacet
facet normal 0 0 -0.309017
   outer loop
vertex 0 0 0
vertex -4.37114e-008 1 0
vertex 0.309017 0.951057 0
   endloop
endfacet
facet normal 0 0 -0.309017
   outer loop
vertex 0 0 0
vertex -0.309017 0.951056 0
vertex -4.37114e-008 1 0
   endloop
endfacet
facet normal 0 0 -0.309017
   outer loop
vertex 0 0 0
vertex -0.587785 0.809017 0
vertex -0.309017 0.951056 0
   endloop
endfacet
facet normal 0 0 -0.309017
   outer loop
vertex 0 0 0
vertex -0.809017 0.587785 0
vertex -0.587785 0.809017 0
   endloop
endfacet
facet normal 0 0 -0.309017
   outer loop
vertex 0 0 0
vertex -0.951056 0.309017 0
vertex -0.809017 0.587785 0
   endloop
endfacet
facet normal -0 0 -0.309017
   outer loop
vertex 0 0 0
vertex -1 -8.74228e-008 0
vertex -0.951056 0.309017 0
   endloop
endfacet
facet normal 0 0 -0.309017
   outer loop
vertex 0 0 0
vertex -0.951057 -0.309017 0
vertex -1 -8.74228e-008 0
   endloop
endfacet
facet normal 0 0 -0.309017
   outer loop
vertex 0 0 0
vertex -0.809017 -0.587785 0
vertex -0.951057 -0.309017 0
   endloop
endfacet
facet normal 0 0 -0.309017
   outer loop
vertex 0 0 0
vertex -0.587785 -0.809017 0
vertex -0.809017 -0.587785 0
   endloop
endfacet
facet normal 0 0 -0.309017
   outer loop
vertex 0 0 0
vertex -0.309017 -0.951056 0
vertex -0.587785 -0.809017 0
   endloop
endfacet
facet normal 0 -0 -0.309017
   outer loop
vertex 0 0 0
vertex 1.19249e-008 -1 0
vertex -0.309017 -0.951056 0
   endloop
endfacet
facet normal 0 0 -0.309017
   outer loop
vertex 0 0 0
vertex 0.309017 -0.951056 0
vertex 1.19249e-008 -1 0
   endloop
endfacet
facet normal 0 0 -0.309017
   outer loop
vertex 0 0 0
vertex 0.587785 -0.809017 0
vertex 0.309017 -0.951056 0
   endloop
endfacet
facet normal 0 0 -0.309017
   outer loop
vertex 0 0 0
vertex 0.809017 -0.587785 0
vertex 0.587785 -0.809017 0
   endloop
endfacet
facet normal 0 0 -0.309017
   outer loop
vertex 0 0 0
vertex 0.951057 -0.309017 0
vertex 0.809017 -0.587785 0
   endloop
endfacet
facet normal 0 0 -0.309017
   outer loop
vertex 0 0 0
vertex 1 0 0
vertex 0.951057 -0.309017 0
   endloop
endfacet
endsolid 
