solid 
facet normal 0.104672 0.00274098 0.052336
   outer loop
vertex 0 0 2
vertex 1 0 0
vertex 0.99863 0.052336 0
   endloop
endfacet
facet normal 0.104385 0.00821519 0.052336
   outer loop
vertex 0 0 2
vertex 0.99863 0.052336 0
vertex 0.994522 0.104528 0
   endloop
endfacet
facet normal 0.103812 0.0136671 0.052336
   outer loop
vertex 0 0 2
vertex 0.994522 0.104528 0
vertex 0.987688 0.156434 0
   endloop
endfacet
facet normal 0.102954 0.0190815 0.052336
   outer loop
vertex 0 0 2
vertex 0.987688 0.156434 0
vertex 0.978148 0.207912 0
   endloop
endfacet
facet normal 0.101815 0.0244436 0.052336
   outer loop
vertex 0 0 2
vertex 0.978148 0.207912 0
vertex 0.965926 0.258819 0
   endloop
endfacet
facet normal 0.100396 0.0297385 0.052336
   outer loop
vertex 0 0 2
vertex 0.965926 0.258819 0
vertex 0.951057 0.309017 0
   endloop
endfacet
facet normal 0.0987019 0.0349523 0.052336
   outer loop
vertex 0 0 2
vertex 0.951057 0.309017 0
vertex 0.93358 0.358368 0
   endloop
endfacet
facet normal 0.0967374 0.0400699 0.052336
   outer loop
vertex 0 0 2
vertex 0.93358 0.358368 0
vertex 0.913545 0.406737 0
   endloop
endfacet
facet normal 0.0945078 0.0450778 0.052336
   outer loop
vertex 0 0 2
vertex 0.913545 0.406737 0
vertex 0.891007 0.453991 0
   endloop
endfacet
facet normal 0.092019 0.0499623 0.0523359
   outer loop
vertex 0 0 2
vertex 0.891007 0.453991 0
vertex 0.866025 0.5 0
   endloop
endfacet
facet normal 0.0892781 0.0547097 0.052336
   outer loop
vertex 0 0 2
vertex 0.866025 0.5 0
vertex 0.838671 0.544639 0
   endloop
endfacet
facet normal 0.0862924 0.0593071 0.0523359
   outer loop
vertex 0 0 2
vertex 0.838671 0.544639 0
vertex 0.809017 0.587785 0
   endloop
endfacet
facet normal 0.0830703 0.0637422 0.052336
   outer loop
vertex 0 0 2
vertex 0.809017 0.587785 0
vertex 0.777146 0.62932 0
   endloop
endfacet
facet normal 0.0796205 0.0680022 0.052336
   outer loop
vertex 0 0 2
vertex 0.777146 0.62932 0
vertex 0.743145 0.669131 0
   endloop
endfacet
facet normal 0.0759523 0.0720761 0.0523359
   outer loop
vertex 0 0 2
vertex 0.743145 0.669131 0
vertex 0.707107 0.707107 0
   endloop
endfacet
facet normal 0.0720762 0.0759524 0.052336
   outer loop
vertex 0 0 2
vertex 0.707107 0.707107 0
vertex 0.669131 0.743145 0
   endloop
endfacet
facet normal 0.0680022 0.0796204 0.0523359
   outer loop
vertex 0 0 2
vertex 0.669131 0.743145 0
vertex 0.62932 0.777146 0
   endloop
endfacet
facet normal 0.063742 0.0830703 0.0523359
   outer loop
vertex 0 0 2
vertex 0.62932 0.777146 0
vertex 0.587785 0.809017 0
   endloop
endfacet
facet normal 0.0593072 0.0862925 0.052336
   outer loop
vertex 0 0 2
vertex 0.587785 0.809017 0
vertex 0.544639 0.838671 0
   endloop
endfacet
facet normal 0.0547097 0.089278 0.0523359
   outer loop
vertex 0 0 2
vertex 0.544639 0.838671 0
vertex 0.5 0.866025 0
   endloop
endfacet
facet normal 0.0499622 0.0920189 0.0523359
   outer loop
vertex 0 0 2
vertex 0.5 0.866025 0
vertex 0.453991 0.891007 0
   endloop
endfacet
facet normal 0.0450779 0.0945078 0.052336
   outer loop
vertex 0 0 2
vertex 0.453991 0.891007 0
vertex 0.406737 0.913545 0
   endloop
endfacet
facet normal 0.0400698 0.0967373 0.0523359
   outer loop
vertex 0 0 2
vertex 0.406737 0.913545 0
vertex 0.358368 0.93358 0
   endloop
endfacet
facet normal 0.0349523 0.098702 0.052336
   outer loop
vertex 0 0 2
vertex 0.358368 0.93358 0
vertex 0.309017 0.951057 0
   endloop
endfacet
facet normal 0.0297385 0.100396 0.0523359
   outer loop
vertex 0 0 2
vertex 0.309017 0.951057 0
vertex 0.258819 0.965926 0
   endloop
endfacet
facet normal 0.0244436 0.101815 0.052336
   outer loop
vertex 0 0 2
vertex 0.258819 0.965926 0
vertex 0.207912 0.978148 0
   endloop
endfacet
facet normal 0.0190815 0.102954 0.0523359
   outer loop
vertex 0 0 2
vertex 0.207912 0.978148 0
vertex 0.156434 0.987688 0
   endloop
endfacet
facet normal 0.0136671 0.103812 0.052336
   outer loop
vertex 0 0 2
vertex 0.156434 0.987688 0
vertex 0.104528 0.994522 0
   endloop
endfacet
facet normal 0.00821519 0.104385 0.0523359
   outer loop
vertex 0 0 2
vertex 0.104528 0.994522 0
vertex 0.052336 0.99863 0
   endloop
endfacet
facet normal 0.00274098 0.104672 0.052336
   outer loop
vertex 0 0 2
vertex 0.052336 0.99863 0
vertex -4.37114e-008 1 0
   endloop
endfacet
facet normal -0.00274098 0.104672 0.0523359
   outer loop
vertex 0 0 2
vertex -4.37114e-008 1 0
vertex -0.0523359 0.99863 0
   endloop
endfacet
facet normal -0.00821519 0.104385 0.052336
   outer loop
vertex 0 0 2
vertex -0.0523359 0.99863 0
vertex -0.104529 0.994522 0
   endloop
endfacet
facet normal -0.0136671 0.103812 0.0523359
   outer loop
vertex 0 0 2
vertex -0.104529 0.994522 0
vertex -0.156434 0.987688 0
   endloop
endfacet
facet normal -0.0190816 0.102955 0.052336
   outer loop
vertex 0 0 2
vertex -0.156434 0.987688 0
vertex -0.207912 0.978148 0
   endloop
endfacet
facet normal -0.0244435 0.101815 0.0523359
   outer loop
vertex 0 0 2
vertex -0.207912 0.978148 0
vertex -0.258819 0.965926 0
   endloop
endfacet
facet normal -0.0297387 0.100396 0.052336
   outer loop
vertex 0 0 2
vertex -0.258819 0.965926 0
vertex -0.309017 0.951056 0
   endloop
endfacet
facet normal -0.034952 0.0987018 0.0523359
   outer loop
vertex 0 0 2
vertex -0.309017 0.951056 0
vertex -0.358368 0.93358 0
   endloop
endfacet
facet normal -0.0400701 0.0967375 0.052336
   outer loop
vertex 0 0 2
vertex -0.358368 0.93358 0
vertex -0.406737 0.913545 0
   endloop
endfacet
facet normal -0.0450779 0.0945078 0.052336
   outer loop
vertex 0 0 2
vertex -0.406737 0.913545 0
vertex -0.453991 0.891006 0
   endloop
endfacet
facet normal -0.0499622 0.0920189 0.0523359
   outer loop
vertex 0 0 2
vertex -0.453991 0.891006 0
vertex -0.5 0.866025 0
   endloop
endfacet
facet normal -0.0547097 0.089278 0.0523359
   outer loop
vertex 0 0 2
vertex -0.5 0.866025 0
vertex -0.544639 0.838671 0
   endloop
endfacet
facet normal -0.0593071 0.0862923 0.0523359
   outer loop
vertex 0 0 2
vertex -0.544639 0.838671 0
vertex -0.587785 0.809017 0
   endloop
endfacet
facet normal -0.0637419 0.0830703 0.0523359
   outer loop
vertex 0 0 2
vertex -0.587785 0.809017 0
vertex -0.62932 0.777146 0
   endloop
endfacet
facet normal -0.0680025 0.0796207 0.0523361
   outer loop
vertex 0 0 2
vertex -0.62932 0.777146 0
vertex -0.669131 0.743145 0
   endloop
endfacet
facet normal -0.0720761 0.0759522 0.0523359
   outer loop
vertex 0 0 2
vertex -0.669131 0.743145 0
vertex -0.707107 0.707107 0
   endloop
endfacet
facet normal -0.0759523 0.0720761 0.0523359
   outer loop
vertex 0 0 2
vertex -0.707107 0.707107 0
vertex -0.743145 0.669131 0
   endloop
endfacet
facet normal -0.0796202 0.0680021 0.0523358
   outer loop
vertex 0 0 2
vertex -0.743145 0.669131 0
vertex -0.777146 0.629321 0
   endloop
endfacet
facet normal -0.0830706 0.0637424 0.0523362
   outer loop
vertex 0 0 2
vertex -0.777146 0.629321 0
vertex -0.809017 0.587785 0
   endloop
endfacet
facet normal -0.0862923 0.059307 0.0523358
   outer loop
vertex 0 0 2
vertex -0.809017 0.587785 0
vertex -0.838671 0.544639 0
   endloop
endfacet
facet normal -0.089278 0.0547097 0.0523359
   outer loop
vertex 0 0 2
vertex -0.838671 0.544639 0
vertex -0.866025 0.5 0
   endloop
endfacet
facet normal -0.092019 0.0499622 0.0523359
   outer loop
vertex 0 0 2
vertex -0.866025 0.5 0
vertex -0.891006 0.453991 0
   endloop
endfacet
facet normal -0.094508 0.045078 0.0523361
   outer loop
vertex 0 0 2
vertex -0.891006 0.453991 0
vertex -0.913545 0.406737 0
   endloop
endfacet
facet normal -0.0967373 0.0400699 0.0523359
   outer loop
vertex 0 0 2
vertex -0.913545 0.406737 0
vertex -0.93358 0.358368 0
   endloop
endfacet
facet normal -0.0987018 0.034952 0.0523359
   outer loop
vertex 0 0 2
vertex -0.93358 0.358368 0
vertex -0.951056 0.309017 0
   endloop
endfacet
facet normal -0.100396 0.0297387 0.0523359
   outer loop
vertex 0 0 2
vertex -0.951056 0.309017 0
vertex -0.965926 0.258819 0
   endloop
endfacet
facet normal -0.101815 0.0244436 0.0523361
   outer loop
vertex 0 0 2
vertex -0.965926 0.258819 0
vertex -0.978148 0.207912 0
   endloop
endfacet
facet normal -0.102954 0.0190815 0.0523359
   outer loop
vertex 0 0 2
vertex -0.978148 0.207912 0
vertex -0.987688 0.156434 0
   endloop
endfacet
facet normal -0.103812 0.0136671 0.0523359
   outer loop
vertex 0 0 2
vertex -0.987688 0.156434 0
vertex -0.994522 0.104528 0
   endloop
endfacet
facet normal -0.104385 0.00821519 0.0523359
   outer loop
vertex 0 0 2
vertex -0.994522 0.104528 0
vertex -0.99863 0.052336 0
   endloop
endfacet
facet normal -0.104672 0.00274098 0.0523361
   outer loop
vertex 0 0 2
vertex -0.99863 0.052336 0
vertex -1 -8.74228e-008 0
   endloop
endfacet
facet normal -0.104672 -0.00274098 0.0523359
   outer loop
vertex 0 0 2
vertex -1 -8.74228e-008 0
vertex -0.99863 -0.052336 0
   endloop
endfacet
facet normal -0.104385 -0.00821519 0.0523359
   outer loop
vertex 0 0 2
vertex -0.99863 -0.052336 0
vertex -0.994522 -0.104528 0
   endloop
endfacet
facet normal -0.103812 -0.0136671 0.0523359
   outer loop
vertex 0 0 2
vertex -0.994522 -0.104528 0
vertex -0.987688 -0.156434 0
   endloop
endfacet
facet normal -0.102955 -0.0190816 0.0523362
   outer loop
vertex 0 0 2
vertex -0.987688 -0.156434 0
vertex -0.978148 -0.207912 0
   endloop
endfacet
facet normal -0.101815 -0.0244435 0.0523359
   outer loop
vertex 0 0 2
vertex -0.978148 -0.207912 0
vertex -0.965926 -0.258819 0
   endloop
endfacet
facet normal -0.100396 -0.0297385 0.0523359
   outer loop
vertex 0 0 2
vertex -0.965926 -0.258819 0
vertex -0.951057 -0.309017 0
   endloop
endfacet
facet normal -0.0987018 -0.0349522 0.0523359
   outer loop
vertex 0 0 2
vertex -0.951057 -0.309017 0
vertex -0.93358 -0.358368 0
   endloop
endfacet
facet normal -0.0967377 -0.0400701 0.0523361
   outer loop
vertex 0 0 2
vertex -0.93358 -0.358368 0
vertex -0.913545 -0.406737 0
   endloop
endfacet
facet normal -0.0945076 -0.0450778 0.0523359
   outer loop
vertex 0 0 2
vertex -0.913545 -0.406737 0
vertex -0.891007 -0.453991 0
   endloop
endfacet
facet normal -0.0920188 -0.0499623 0.0523359
   outer loop
vertex 0 0 2
vertex -0.891007 -0.453991 0
vertex -0.866025 -0.5 0
   endloop
endfacet
facet normal -0.089278 -0.0547096 0.0523359
   outer loop
vertex 0 0 2
vertex -0.866025 -0.5 0
vertex -0.838671 -0.544639 0
   endloop
endfacet
facet normal -0.0862927 -0.0593073 0.0523361
   outer loop
vertex 0 0 2
vertex -0.838671 -0.544639 0
vertex -0.809017 -0.587785 0
   endloop
endfacet
facet normal -0.0830702 -0.063742 0.0523359
   outer loop
vertex 0 0 2
vertex -0.809017 -0.587785 0
vertex -0.777146 -0.62932 0
   endloop
endfacet
facet normal -0.0796204 -0.0680022 0.0523359
   outer loop
vertex 0 0 2
vertex -0.777146 -0.62932 0
vertex -0.743145 -0.669131 0
   endloop
endfacet
facet normal -0.0759522 -0.072076 0.0523358
   outer loop
vertex 0 0 2
vertex -0.743145 -0.669131 0
vertex -0.707107 -0.707107 0
   endloop
endfacet
facet normal -0.0720763 -0.0759526 0.0523361
   outer loop
vertex 0 0 2
vertex -0.707107 -0.707107 0
vertex -0.669131 -0.743145 0
   endloop
endfacet
facet normal -0.0680022 -0.0796204 0.0523359
   outer loop
vertex 0 0 2
vertex -0.669131 -0.743145 0
vertex -0.62932 -0.777146 0
   endloop
endfacet
facet normal -0.0637423 -0.0830705 0.0523361
   outer loop
vertex 0 0 2
vertex -0.62932 -0.777146 0
vertex -0.587785 -0.809017 0
   endloop
endfacet
facet normal -0.0593069 -0.0862919 0.0523357
   outer loop
vertex 0 0 2
vertex -0.587785 -0.809017 0
vertex -0.544639 -0.838671 0
   endloop
endfacet
facet normal -0.0547098 -0.0892784 0.0523361
   outer loop
vertex 0 0 2
vertex -0.544639 -0.838671 0
vertex -0.5 -0.866025 0
   endloop
endfacet
facet normal -0.049962 -0.0920185 0.0523357
   outer loop
vertex 0 0 2
vertex -0.5 -0.866025 0
vertex -0.453991 -0.891006 0
   endloop
endfacet
facet normal -0.0450779 -0.0945081 0.0523361
   outer loop
vertex 0 0 2
vertex -0.453991 -0.891006 0
vertex -0.406737 -0.913545 0
   endloop
endfacet
facet normal -0.0400702 -0.0967377 0.0523362
   outer loop
vertex 0 0 2
vertex -0.406737 -0.913545 0
vertex -0.358368 -0.933581 0
   endloop
endfacet
facet normal -0.0349519 -0.0987014 0.0523357
   outer loop
vertex 0 0 2
vertex -0.358368 -0.933581 0
vertex -0.309017 -0.951056 0
   endloop
endfacet
facet normal -0.0297388 -0.100396 0.0523361
   outer loop
vertex 0 0 2
vertex -0.309017 -0.951056 0
vertex -0.258819 -0.965926 0
   endloop
endfacet
facet normal -0.0244434 -0.101814 0.0523357
   outer loop
vertex 0 0 2
vertex -0.258819 -0.965926 0
vertex -0.207912 -0.978148 0
   endloop
endfacet
facet normal -0.0190815 -0.102955 0.0523361
   outer loop
vertex 0 0 2
vertex -0.207912 -0.978148 0
vertex -0.156435 -0.987688 0
   endloop
endfacet
facet normal -0.0136672 -0.103812 0.0523361
   outer loop
vertex 0 0 2
vertex -0.156435 -0.987688 0
vertex -0.104528 -0.994522 0
   endloop
endfacet
facet normal -0.00821519 -0.104384 0.0523357
   outer loop
vertex 0 0 2
vertex -0.104528 -0.994522 0
vertex -0.0523361 -0.99863 0
   endloop
endfacet
facet normal -0.00274098 -0.104672 0.0523361
   outer loop
vertex 0 0 2
vertex -0.0523361 -0.99863 0
vertex 1.19249e-008 -1 0
   endloop
endfacet
facet normal 0.00274098 -0.104672 0.0523361
   outer loop
vertex 0 0 2
vertex 1.19249e-008 -1 0
vertex 0.0523361 -0.99863 0
   endloop
endfacet
facet normal 0.00821519 -0.104384 0.0523357
   outer loop
vertex 0 0 2
vertex 0.0523361 -0.99863 0
vertex 0.104528 -0.994522 0
   endloop
endfacet
facet normal 0.0136672 -0.103812 0.0523361
   outer loop
vertex 0 0 2
vertex 0.104528 -0.994522 0
vertex 0.156435 -0.987688 0
   endloop
endfacet
facet normal 0.0190814 -0.102954 0.0523357
   outer loop
vertex 0 0 2
vertex 0.156435 -0.987688 0
vertex 0.207911 -0.978148 0
   endloop
endfacet
facet normal 0.0244436 -0.101815 0.0523361
   outer loop
vertex 0 0 2
vertex 0.207911 -0.978148 0
vertex 0.258819 -0.965926 0
   endloop
endfacet
facet normal 0.0297387 -0.100396 0.0523361
   outer loop
vertex 0 0 2
vertex 0.258819 -0.965926 0
vertex 0.309017 -0.951056 0
   endloop
endfacet
facet normal 0.034952 -0.0987014 0.0523357
   outer loop
vertex 0 0 2
vertex 0.309017 -0.951056 0
vertex 0.358368 -0.93358 0
   endloop
endfacet
facet normal 0.0400701 -0.0967377 0.0523361
   outer loop
vertex 0 0 2
vertex 0.358368 -0.93358 0
vertex 0.406737 -0.913545 0
   endloop
endfacet
facet normal 0.045078 -0.094508 0.0523361
   outer loop
vertex 0 0 2
vertex 0.406737 -0.913545 0
vertex 0.453991 -0.891006 0
   endloop
endfacet
facet normal 0.0499619 -0.0920185 0.0523357
   outer loop
vertex 0 0 2
vertex 0.453991 -0.891006 0
vertex 0.5 -0.866025 0
   endloop
endfacet
facet normal 0.0547099 -0.0892784 0.0523362
   outer loop
vertex 0 0 2
vertex 0.5 -0.866025 0
vertex 0.544639 -0.83867 0
   endloop
endfacet
facet normal 0.0593067 -0.0862919 0.0523356
   outer loop
vertex 0 0 2
vertex 0.544639 -0.83867 0
vertex 0.587785 -0.809017 0
   endloop
endfacet
facet normal 0.0637423 -0.0830706 0.0523362
   outer loop
vertex 0 0 2
vertex 0.587785 -0.809017 0
vertex 0.62932 -0.777146 0
   endloop
endfacet
facet normal 0.0680025 -0.0796207 0.0523361
   outer loop
vertex 0 0 2
vertex 0.62932 -0.777146 0
vertex 0.669131 -0.743145 0
   endloop
endfacet
facet normal 0.0720757 -0.0759518 0.0523356
   outer loop
vertex 0 0 2
vertex 0.669131 -0.743145 0
vertex 0.707107 -0.707107 0
   endloop
endfacet
facet normal 0.0759526 -0.0720764 0.0523362
   outer loop
vertex 0 0 2
vertex 0.707107 -0.707107 0
vertex 0.743145 -0.669131 0
   endloop
endfacet
facet normal 0.0796207 -0.0680025 0.0523361
   outer loop
vertex 0 0 2
vertex 0.743145 -0.669131 0
vertex 0.777146 -0.62932 0
   endloop
endfacet
facet normal 0.0830698 -0.0637417 0.0523356
   outer loop
vertex 0 0 2
vertex 0.777146 -0.62932 0
vertex 0.809017 -0.587785 0
   endloop
endfacet
facet normal 0.0862927 -0.0593073 0.0523361
   outer loop
vertex 0 0 2
vertex 0.809017 -0.587785 0
vertex 0.838671 -0.544639 0
   endloop
endfacet
facet normal 0.0892775 -0.0547094 0.0523357
   outer loop
vertex 0 0 2
vertex 0.838671 -0.544639 0
vertex 0.866025 -0.5 0
   endloop
endfacet
facet normal 0.0920193 -0.0499624 0.0523361
   outer loop
vertex 0 0 2
vertex 0.866025 -0.5 0
vertex 0.891007 -0.453991 0
   endloop
endfacet
facet normal 0.0945081 -0.045078 0.0523361
   outer loop
vertex 0 0 2
vertex 0.891007 -0.453991 0
vertex 0.913546 -0.406736 0
   endloop
endfacet
facet normal 0.0967368 -0.0400697 0.0523357
   outer loop
vertex 0 0 2
vertex 0.913546 -0.406736 0
vertex 0.93358 -0.358368 0
   endloop
endfacet
facet normal 0.0987023 -0.0349523 0.0523361
   outer loop
vertex 0 0 2
vertex 0.93358 -0.358368 0
vertex 0.951057 -0.309017 0
   endloop
endfacet
facet normal 0.100396 -0.0297387 0.0523361
   outer loop
vertex 0 0 2
vertex 0.951057 -0.309017 0
vertex 0.965926 -0.258819 0
   endloop
endfacet
facet normal 0.101814 -0.0244434 0.0523357
   outer loop
vertex 0 0 2
vertex 0.965926 -0.258819 0
vertex 0.978148 -0.207912 0
   endloop
endfacet
facet normal 0.102955 -0.0190816 0.0523361
   outer loop
vertex 0 0 2
vertex 0.978148 -0.207912 0
vertex 0.987688 -0.156434 0
   endloop
endfacet
facet normal 0.103811 -0.013667 0.0523357
   outer loop
vertex 0 0 2
vertex 0.987688 -0.156434 0
vertex 0.994522 -0.104529 0
   endloop
endfacet
facet normal 0.104385 -0.00821531 0.0523361
   outer loop
vertex 0 0 2
vertex 0.994522 -0.104529 0
vertex 0.99863 -0.052336 0
   endloop
endfacet
facet normal 0.104672 -0.00274098 0.052336
   outer loop
vertex 0 0 2
vertex 0.99863 -0.052336 0
vertex 1 0 0
   endloop
endfacet
endsolid 
