solid cylinder
facet normal -0.517638 -0.0681484 -0
   outer loop
vertex 1 0 2
vertex 0.965926 0.258819 2
vertex 1 0 0
   endloop
endfacet
facet normal -0.517638 -0.0681484 -0
   outer loop
vertex 0.965926 0.258819 2
vertex 0.965926 0.258819 0
vertex 1 0 0
   endloop
endfacet
facet normal -0.482362 -0.199801 -0
   outer loop
vertex 0.965926 0.258819 2
vertex 0.866025 0.5 2
vertex 0.965926 0.258819 0
   endloop
endfacet
facet normal -0.482362 -0.199801 -0
   outer loop
vertex 0.866025 0.5 2
vertex 0.866025 0.5 0
vertex 0.965926 0.258819 0
   endloop
endfacet
facet normal -0.414214 -0.317837 -0
   outer loop
vertex 0.866025 0.5 2
vertex 0.707107 0.707107 2
vertex 0.866025 0.5 0
   endloop
endfacet
facet normal -0.414214 -0.317837 -0
   outer loop
vertex 0.707107 0.707107 2
vertex 0.707107 0.707107 0
vertex 0.866025 0.5 0
   endloop
endfacet
facet normal -0.317837 -0.414214 -0
   outer loop
vertex 0.707107 0.707107 2
vertex 0.5 0.866025 2
vertex 0.707107 0.707107 0
   endloop
endfacet
facet normal -0.317837 -0.414214 -0
   outer loop
vertex 0.5 0.866025 2
vertex 0.5 0.866025 0
vertex 0.707107 0.707107 0
   endloop
endfacet
facet normal -0.199801 -0.482362 -0
   outer loop
vertex 0.5 0.866025 2
vertex 0.258819 0.965926 2
vertex 0.5 0.866025 0
   endloop
endfacet
facet normal -0.199801 -0.482362 -0
   outer loop
vertex 0.258819 0.965926 2
vertex 0.258819 0.965926 0
vertex 0.5 0.866025 0
   endloop
endfacet
facet normal -0.0681484 -0.517638 -0
   outer loop
vertex 0.258819 0.965926 2
vertex -4.37114e-008 1 2
vertex 0.258819 0.965926 0
   endloop
endfacet
facet normal -0.0681484 -0.517638 -0
   outer loop
vertex -4.37114e-008 1 2
vertex -4.37114e-008 1 0
vertex 0.258819 0.965926 0
   endloop
endfacet
facet normal 0.0681484 -0.517638 0
   outer loop
vertex -4.37114e-008 1 2
vertex -0.258819 0.965926 2
vertex -4.37114e-008 1 0
   endloop
endfacet
facet normal 0.0681484 -0.517638 0
   outer loop
vertex -0.258819 0.965926 2
vertex -0.258819 0.965926 0
vertex -4.37114e-008 1 0
   endloop
endfacet
facet normal 0.199801 -0.482362 0
   outer loop
vertex -0.258819 0.965926 2
vertex -0.5 0.866025 2
vertex -0.258819 0.965926 0
   endloop
endfacet
facet normal 0.199801 -0.482362 0
   outer loop
vertex -0.5 0.866025 2
vertex -0.5 0.866025 0
vertex -0.258819 0.965926 0
   endloop
endfacet
facet normal 0.317837 -0.414213 0
   outer loop
vertex -0.5 0.866025 2
vertex -0.707107 0.707107 2
vertex -0.5 0.866025 0
   endloop
endfacet
facet normal 0.317837 -0.414213 0
   outer loop
vertex -0.707107 0.707107 2
vertex -0.707107 0.707107 0
vertex -0.5 0.866025 0
   endloop
endfacet
facet normal 0.414213 -0.317837 0
   outer loop
vertex -0.707107 0.707107 2
vertex -0.866025 0.5 2
vertex -0.707107 0.707107 0
   endloop
endfacet
facet normal 0.414213 -0.317837 0
   outer loop
vertex -0.866025 0.5 2
vertex -0.866025 0.5 0
vertex -0.707107 0.707107 0
   endloop
endfacet
facet normal 0.482362 -0.199801 0
   outer loop
vertex -0.866025 0.5 2
vertex -0.965926 0.258819 2
vertex -0.866025 0.5 0
   endloop
endfacet
facet normal 0.482362 -0.199801 0
   outer loop
vertex -0.965926 0.258819 2
vertex -0.965926 0.258819 0
vertex -0.866025 0.5 0
   endloop
endfacet
facet normal 0.517638 -0.0681484 0
   outer loop
vertex -0.965926 0.258819 2
vertex -1 -8.74228e-008 2
vertex -0.965926 0.258819 0
   endloop
endfacet
facet normal 0.517638 -0.0681484 0
   outer loop
vertex -1 -8.74228e-008 2
vertex -1 -8.74228e-008 0
vertex -0.965926 0.258819 0
   endloop
endfacet
facet normal 0.517638 0.0681484 0
   outer loop
vertex -1 -8.74228e-008 2
vertex -0.965926 -0.258819 2
vertex -1 -8.74228e-008 0
   endloop
endfacet
facet normal 0.517638 0.0681484 0
   outer loop
vertex -0.965926 -0.258819 2
vertex -0.965926 -0.258819 0
vertex -1 -8.74228e-008 0
   endloop
endfacet
facet normal 0.482362 0.199801 0
   outer loop
vertex -0.965926 -0.258819 2
vertex -0.866025 -0.5 2
vertex -0.965926 -0.258819 0
   endloop
endfacet
facet normal 0.482362 0.199801 0
   outer loop
vertex -0.866025 -0.5 2
vertex -0.866025 -0.5 0
vertex -0.965926 -0.258819 0
   endloop
endfacet
facet normal 0.414213 0.317837 0
   outer loop
vertex -0.866025 -0.5 2
vertex -0.707107 -0.707107 2
vertex -0.866025 -0.5 0
   endloop
endfacet
facet normal 0.414213 0.317837 0
   outer loop
vertex -0.707107 -0.707107 2
vertex -0.707107 -0.707107 0
vertex -0.866025 -0.5 0
   endloop
endfacet
facet normal 0.317837 0.414214 0
   outer loop
vertex -0.707107 -0.707107 2
vertex -0.5 -0.866025 2
vertex -0.707107 -0.707107 0
   endloop
endfacet
facet normal 0.317837 0.414214 0
   outer loop
vertex -0.5 -0.866025 2
vertex -0.5 -0.866025 0
vertex -0.707107 -0.707107 0
   endloop
endfacet
facet normal 0.199801 0.482362 0
   outer loop
vertex -0.5 -0.866025 2
vertex -0.258819 -0.965926 2
vertex -0.5 -0.866025 0
   endloop
endfacet
facet normal 0.199801 0.482362 0
   outer loop
vertex -0.258819 -0.965926 2
vertex -0.258819 -0.965926 0
vertex -0.5 -0.866025 0
   endloop
endfacet
facet normal 0.0681483 0.517638 0
   outer loop
vertex -0.258819 -0.965926 2
vertex 1.19249e-008 -1 2
vertex -0.258819 -0.965926 0
   endloop
endfacet
facet normal 0.0681483 0.517638 0
   outer loop
vertex 1.19249e-008 -1 2
vertex 1.19249e-008 -1 0
vertex -0.258819 -0.965926 0
   endloop
endfacet
facet normal -0.0681484 0.517638 0
   outer loop
vertex 1.19249e-008 -1 2
vertex 0.258819 -0.965926 2
vertex 1.19249e-008 -1 0
   endloop
endfacet
facet normal -0.0681484 0.517638 0
   outer loop
vertex 0.258819 -0.965926 2
vertex 0.258819 -0.965926 0
vertex 1.19249e-008 -1 0
   endloop
endfacet
facet normal -0.199801 0.482362 0
   outer loop
vertex 0.258819 -0.965926 2
vertex 0.5 -0.866025 2
vertex 0.258819 -0.965926 0
   endloop
endfacet
facet normal -0.199801 0.482362 0
   outer loop
vertex 0.5 -0.866025 2
vertex 0.5 -0.866025 0
vertex 0.258819 -0.965926 0
   endloop
endfacet
facet normal -0.317837 0.414213 0
   outer loop
vertex 0.5 -0.866025 2
vertex 0.707107 -0.707107 2
vertex 0.5 -0.866025 0
   endloop
endfacet
facet normal -0.317837 0.414213 0
   outer loop
vertex 0.707107 -0.707107 2
vertex 0.707107 -0.707107 0
vertex 0.5 -0.866025 0
   endloop
endfacet
facet normal -0.414213 0.317837 0
   outer loop
vertex 0.707107 -0.707107 2
vertex 0.866025 -0.5 2
vertex 0.707107 -0.707107 0
   endloop
endfacet
facet normal -0.414213 0.317837 0
   outer loop
vertex 0.866025 -0.5 2
vertex 0.866025 -0.5 0
vertex 0.707107 -0.707107 0
   endloop
endfacet
facet normal -0.482363 0.199801 0
   outer loop
vertex 0.866025 -0.5 2
vertex 0.965926 -0.258819 2
vertex 0.866025 -0.5 0
   endloop
endfacet
facet normal -0.482363 0.199801 0
   outer loop
vertex 0.965926 -0.258819 2
vertex 0.965926 -0.258819 0
vertex 0.866025 -0.5 0
   endloop
endfacet
facet normal -0.517638 0.0681483 0
   outer loop
vertex 0.965926 -0.258819 2
vertex 1 0 2
vertex 0.965926 -0.258819 0
   endloop
endfacet
facet normal -0.517638 0.0681483 0
   outer loop
vertex 1 0 2
vertex 1 0 0
vertex 0.965926 -0.258819 0
   endloop
endfacet
facet normal 0 0 0.258819
   outer loop
vertex 1 0 2
vertex 0.965926 0.258819 2
vertex 0 0 2
   endloop
endfacet
facet normal 0 0 0.258819
   outer loop
vertex 0.965926 0.258819 2
vertex 0.866025 0.5 2
vertex 0 0 2
   endloop
endfacet
facet normal 0 0 0.258819
   outer loop
vertex 0.866025 0.5 2
vertex 0.707107 0.707107 2
vertex 0 0 2
   endloop
endfacet
facet normal 0 0 0.258819
   outer loop
vertex 0.707107 0.707107 2
vertex 0.5 0.866025 2
vertex 0 0 2
   endloop
endfacet
facet normal 0 0 0.258819
   outer loop
vertex 0.5 0.866025 2
vertex 0.258819 0.965926 2
vertex 0 0 2
   endloop
endfacet
facet normal 0 0 0.258819
   outer loop
vertex 0.258819 0.965926 2
vertex -4.37114e-008 1 2
vertex 0 0 2
   endloop
endfacet
facet normal 0 0 0.258819
   outer loop
vertex -4.37114e-008 1 2
vertex -0.258819 0.965926 2
vertex 0 0 2
   endloop
endfacet
facet normal 0 0 0.258819
   outer loop
vertex -0.258819 0.965926 2
vertex -0.5 0.866025 2
vertex 0 0 2
   endloop
endfacet
facet normal 0 0 0.258819
   outer loop
vertex -0.5 0.866025 2
vertex -0.707107 0.707107 2
vertex 0 0 2
   endloop
endfacet
facet normal 0 0 0.258819
   outer loop
vertex -0.707107 0.707107 2
vertex -0.866025 0.5 2
vertex 0 0 2
   endloop
endfacet
facet normal 0 0 0.258819
   outer loop
vertex -0.866025 0.5 2
vertex -0.965926 0.258819 2
vertex 0 0 2
   endloop
endfacet
facet normal 0 0 0.258819
   outer loop
vertex -0.965926 0.258819 2
vertex -1 -8.74228e-008 2
vertex 0 0 2
   endloop
endfacet
facet normal -0 0 0.258819
   outer loop
vertex -1 -8.74228e-008 2
vertex -0.965926 -0.258819 2
vertex 0 0 2
   endloop
endfacet
facet normal -0 0 0.258819
   outer loop
vertex -0.965926 -0.258819 2
vertex -0.866025 -0.5 2
vertex 0 0 2
   endloop
endfacet
facet normal -0 0 0.258819
   outer loop
vertex -0.866025 -0.5 2
vertex -0.707107 -0.707107 2
vertex 0 0 2
   endloop
endfacet
facet normal -0 0 0.258819
   outer loop
vertex -0.707107 -0.707107 2
vertex -0.5 -0.866025 2
vertex 0 0 2
   endloop
endfacet
facet normal -0 0 0.258819
   outer loop
vertex -0.5 -0.866025 2
vertex -0.258819 -0.965926 2
vertex 0 0 2
   endloop
endfacet
facet normal -0 0 0.258819
   outer loop
vertex -0.258819 -0.965926 2
vertex 1.19249e-008 -1 2
vertex 0 0 2
   endloop
endfacet
facet normal 0 -0 0.258819
   outer loop
vertex 1.19249e-008 -1 2
vertex 0.258819 -0.965926 2
vertex 0 0 2
   endloop
endfacet
facet normal 0 -0 0.258819
   outer loop
vertex 0.258819 -0.965926 2
vertex 0.5 -0.866025 2
vertex 0 0 2
   endloop
endfacet
facet normal 0 -0 0.258819
   outer loop
vertex 0.5 -0.866025 2
vertex 0.707107 -0.707107 2
vertex 0 0 2
   endloop
endfacet
facet normal 0 -0 0.258819
   outer loop
vertex 0.707107 -0.707107 2
vertex 0.866025 -0.5 2
vertex 0 0 2
   endloop
endfacet
facet normal 0 -0 0.258819
   outer loop
vertex 0.866025 -0.5 2
vertex 0.965926 -0.258819 2
vertex 0 0 2
   endloop
endfacet
facet normal 0 -0 0.258819
   outer loop
vertex 0.965926 -0.258819 2
vertex 1 0 2
vertex 0 0 2
   endloop
endfacet
facet normal 0 0 0.258819
   outer loop
vertex 1 0 0
vertex 0.965926 0.258819 0
vertex 0 0 0
   endloop
endfacet
facet normal 0 0 0.258819
   outer loop
vertex 0.965926 0.258819 0
vertex 0.866025 0.5 0
vertex 0 0 0
   endloop
endfacet
facet normal 0 0 0.258819
   outer loop
vertex 0.866025 0.5 0
vertex 0.707107 0.707107 0
vertex 0 0 0
   endloop
endfacet
facet normal 0 0 0.258819
   outer loop
vertex 0.707107 0.707107 0
vertex 0.5 0.866025 0
vertex 0 0 0
   endloop
endfacet
facet normal 0 0 0.258819
   outer loop
vertex 0.5 0.866025 0
vertex 0.258819 0.965926 0
vertex 0 0 0
   endloop
endfacet
facet normal 0 0 0.258819
   outer loop
vertex 0.258819 0.965926 0
vertex -4.37114e-008 1 0
vertex 0 0 0
   endloop
endfacet
facet normal 0 0 0.258819
   outer loop
vertex -4.37114e-008 1 0
vertex -0.258819 0.965926 0
vertex 0 0 0
   endloop
endfacet
facet normal 0 0 0.258819
   outer loop
vertex -0.258819 0.965926 0
vertex -0.5 0.866025 0
vertex 0 0 0
   endloop
endfacet
facet normal 0 0 0.258819
   outer loop
vertex -0.5 0.866025 0
vertex -0.707107 0.707107 0
vertex 0 0 0
   endloop
endfacet
facet normal 0 0 0.258819
   outer loop
vertex -0.707107 0.707107 0
vertex -0.866025 0.5 0
vertex 0 0 0
   endloop
endfacet
facet normal 0 0 0.258819
   outer loop
vertex -0.866025 0.5 0
vertex -0.965926 0.258819 0
vertex 0 0 0
   endloop
endfacet
facet normal 0 0 0.258819
   outer loop
vertex -0.965926 0.258819 0
vertex -1 -8.74228e-008 0
vertex 0 0 0
   endloop
endfacet
facet normal -0 0 0.258819
   outer loop
vertex -1 -8.74228e-008 0
vertex -0.965926 -0.258819 0
vertex 0 0 0
   endloop
endfacet
facet normal -0 0 0.258819
   outer loop
vertex -0.965926 -0.258819 0
vertex -0.866025 -0.5 0
vertex 0 0 0
   endloop
endfacet
facet normal -0 0 0.258819
   outer loop
vertex -0.866025 -0.5 0
vertex -0.707107 -0.707107 0
vertex 0 0 0
   endloop
endfacet
facet normal -0 0 0.258819
   outer loop
vertex -0.707107 -0.707107 0
vertex -0.5 -0.866025 0
vertex 0 0 0
   endloop
endfacet
facet normal -0 0 0.258819
   outer loop
vertex -0.5 -0.866025 0
vertex -0.258819 -0.965926 0
vertex 0 0 0
   endloop
endfacet
facet normal -0 0 0.258819
   outer loop
vertex -0.258819 -0.965926 0
vertex 1.19249e-008 -1 0
vertex 0 0 0
   endloop
endfacet
facet normal 0 -0 0.258819
   outer loop
vertex 1.19249e-008 -1 0
vertex 0.258819 -0.965926 0
vertex 0 0 0
   endloop
endfacet
facet normal 0 -0 0.258819
   outer loop
vertex 0.258819 -0.965926 0
vertex 0.5 -0.866025 0
vertex 0 0 0
   endloop
endfacet
facet normal 0 -0 0.258819
   outer loop
vertex 0.5 -0.866025 0
vertex 0.707107 -0.707107 0
vertex 0 0 0
   endloop
endfacet
facet normal 0 -0 0.258819
   outer loop
vertex 0.707107 -0.707107 0
vertex 0.866025 -0.5 0
vertex 0 0 0
   endloop
endfacet
facet normal 0 -0 0.258819
   outer loop
vertex 0.866025 -0.5 0
vertex 0.965926 -0.258819 0
vertex 0 0 0
   endloop
endfacet
facet normal 0 -0 0.258819
   outer loop
vertex 0.965926 -0.258819 0
vertex 1 0 0
vertex 0 0 0
   endloop
endfacet
endsolid cylinder
